<svg width="911" height="912" viewBox="0 0 911 912" fill="none" xmlns="http://www.w3.org/2000/svg">
<circle cx="455.447" cy="456.366" r="455.447" fill="url(#paint0_linear)"/>
<circle cx="562.204" cy="798.144" r="26.1133" fill="white"/>
<circle cx="562.204" cy="727.485" r="26.1133" fill="white"/>
<circle cx="562.204" cy="656.824" r="26.1133" fill="white"/>
<line x1="562.205" y1="497.072" x2="562.205" y2="655.288" stroke="white" stroke-width="52.2267"/>
<circle cx="456.216" cy="682.938" r="26.1133" fill="white"/>
<circle cx="456.216" cy="615.35" r="26.1133" fill="white"/>
<line x1="456.221" y1="497.072" x2="456.221" y2="613.814" stroke="white" stroke-width="52.2267"/>
<circle cx="350.227" cy="635.319" r="26.1133" fill="white"/>
<circle cx="350.227" cy="570.804" r="26.1133" fill="white"/>
<line x1="350.228" y1="497.073" x2="350.228" y2="568.501" stroke="white" stroke-width="52.2267"/>
<circle cx="502.299" cy="337.319" r="27.6494" fill="white"/>
<circle cx="411.671" cy="338.855" r="27.6494" fill="white"/>
<circle cx="274.251" cy="115.418" r="25.4067" fill="white"/>
<path d="M639.296 363.432C652.711 363.432 663.702 352.535 662.478 339.176C660.415 316.636 655.481 294.509 647.801 273.494C637.379 244.98 622.105 219.072 602.848 197.248C583.592 175.424 560.732 158.113 535.573 146.302C510.413 134.491 483.448 128.412 456.215 128.412C428.983 128.412 402.017 134.491 376.858 146.302C351.699 158.113 328.838 175.425 309.582 197.248C290.326 219.072 275.051 244.98 264.63 273.494C256.949 294.509 252.016 316.636 249.952 339.176C248.729 352.535 259.72 363.432 273.135 363.432C286.55 363.432 297.274 352.519 298.871 339.2C300.706 323.898 304.275 308.893 309.512 294.564C317.492 272.73 329.188 252.891 343.933 236.179C358.678 219.468 376.183 206.212 395.449 197.168C414.714 188.124 435.363 183.47 456.215 183.47C477.068 183.47 497.716 188.124 516.982 197.168C536.247 206.212 553.752 219.468 568.497 236.179C583.242 252.891 594.939 272.73 602.919 294.564C608.156 308.893 611.725 323.898 613.56 339.2C615.157 352.519 625.881 363.432 639.296 363.432Z" fill="white"/>
<line x1="274.252" y1="116.125" x2="274.252" y2="455.598" stroke="white" stroke-width="50.8149"/>
<path d="M411.776 438.235C435.524 446.225 488.263 454.27 509.24 422.523" stroke="white" stroke-width="18.4329"/>
<path d="M501.328 417.775C502.873 415.433 505.165 413.723 507.7 413.019C510.235 412.316 512.805 412.677 514.845 414.023C516.886 415.369 518.229 417.59 518.579 420.198C518.93 422.805 518.259 425.585 516.714 427.926L509.021 422.85L501.328 417.775Z" fill="white"/>
<path d="M409.033 447.036C406.478 446.185 404.336 444.447 403.076 442.206C401.816 439.964 401.543 437.401 402.315 435.082C403.088 432.763 404.844 430.877 407.197 429.839C409.549 428.801 412.306 428.695 414.86 429.547L411.946 438.291L409.033 447.036Z" fill="white"/>
<defs>
<linearGradient id="paint0_linear" x1="818.73" y1="732.86" x2="164.36" y2="93.0831" gradientUnits="userSpaceOnUse">
<stop stop-color="#B55EE0"/>
<stop offset="1" stop-color="#5B7EDE"/>
</linearGradient>
</defs>
</svg>
