<svg width="4394" height="912" viewBox="0 0 4394 912" fill="none" xmlns="http://www.w3.org/2000/svg">
<circle cx="455.447" cy="456.366" r="455.447" fill="url(#paint0_linear)"/>
<circle cx="562.204" cy="798.144" r="26.1133" fill="white"/>
<circle cx="562.204" cy="727.485" r="26.1133" fill="white"/>
<circle cx="562.204" cy="656.824" r="26.1133" fill="white"/>
<line x1="562.205" y1="497.072" x2="562.205" y2="655.288" stroke="white" stroke-width="52.2267"/>
<circle cx="456.216" cy="682.938" r="26.1133" fill="white"/>
<circle cx="456.216" cy="615.35" r="26.1133" fill="white"/>
<line x1="456.221" y1="497.072" x2="456.221" y2="613.814" stroke="white" stroke-width="52.2267"/>
<circle cx="350.227" cy="635.319" r="26.1133" fill="white"/>
<circle cx="350.227" cy="570.804" r="26.1133" fill="white"/>
<line x1="350.228" y1="497.073" x2="350.228" y2="568.501" stroke="white" stroke-width="52.2267"/>
<circle cx="502.299" cy="337.319" r="27.6494" fill="white"/>
<circle cx="411.671" cy="338.855" r="27.6494" fill="white"/>
<circle cx="274.251" cy="115.418" r="25.4067" fill="white"/>
<path d="M639.296 363.432C652.711 363.432 663.702 352.535 662.478 339.176C660.415 316.636 655.481 294.509 647.801 273.494C637.379 244.98 622.105 219.072 602.848 197.248C583.592 175.424 560.732 158.113 535.573 146.302C510.413 134.491 483.448 128.412 456.215 128.412C428.983 128.412 402.017 134.491 376.858 146.302C351.699 158.113 328.838 175.425 309.582 197.248C290.326 219.072 275.051 244.98 264.63 273.494C256.949 294.509 252.016 316.636 249.952 339.176C248.729 352.535 259.72 363.432 273.135 363.432C286.55 363.432 297.274 352.519 298.871 339.2C300.706 323.898 304.275 308.893 309.512 294.564C317.492 272.73 329.188 252.891 343.933 236.179C358.678 219.468 376.183 206.212 395.449 197.168C414.714 188.124 435.363 183.47 456.215 183.47C477.068 183.47 497.716 188.124 516.982 197.168C536.247 206.212 553.752 219.468 568.497 236.179C583.242 252.891 594.939 272.73 602.919 294.564C608.156 308.893 611.725 323.898 613.56 339.2C615.157 352.519 625.881 363.432 639.296 363.432Z" fill="white"/>
<line x1="274.252" y1="116.125" x2="274.252" y2="455.598" stroke="white" stroke-width="50.8149"/>
<path d="M411.776 438.235C435.524 446.225 488.263 454.27 509.24 422.523" stroke="white" stroke-width="18.4329"/>
<path d="M501.328 417.775C502.873 415.433 505.165 413.723 507.7 413.019C510.235 412.316 512.805 412.677 514.845 414.023C516.886 415.369 518.229 417.59 518.579 420.198C518.93 422.805 518.259 425.585 516.714 427.926L509.021 422.85L501.328 417.775Z" fill="white"/>
<path d="M409.033 447.036C406.478 446.185 404.336 444.447 403.076 442.206C401.816 439.964 401.543 437.401 402.315 435.082C403.088 432.763 404.844 430.877 407.197 429.839C409.549 428.801 412.306 428.695 414.86 429.547L411.946 438.291L409.033 447.036Z" fill="white"/>
<path d="M1053.57 519.022C1036.12 519.022 1020.02 515.827 1005.27 509.437C990.771 502.801 978.851 493.462 969.512 481.419L1002.69 441.604C1016.7 460.528 1032.68 469.991 1050.62 469.991C1074.95 469.991 1087.11 455.736 1087.11 427.226V304.463H996.424V256.537H1146.47V423.908C1146.47 455.613 1138.6 479.453 1122.87 495.428C1107.14 511.158 1084.04 519.022 1053.57 519.022ZM1295.78 517.548C1274.89 517.548 1256.09 513.247 1239.38 504.645C1222.91 495.797 1210.01 483.631 1200.67 468.147C1191.33 452.664 1186.66 435.091 1186.66 415.429C1186.66 395.767 1191.33 378.195 1200.67 362.711C1210.01 347.227 1222.91 335.184 1239.38 326.582C1256.09 317.735 1274.89 313.311 1295.78 313.311C1316.67 313.311 1335.35 317.735 1351.82 326.582C1368.28 335.184 1381.19 347.227 1390.53 362.711C1399.87 378.195 1404.53 395.767 1404.53 415.429C1404.53 435.091 1399.87 452.664 1390.53 468.147C1381.19 483.631 1368.28 495.797 1351.82 504.645C1335.35 513.247 1316.67 517.548 1295.78 517.548ZM1295.78 470.359C1310.53 470.359 1322.57 465.444 1331.91 455.613C1341.49 445.536 1346.29 432.142 1346.29 415.429C1346.29 398.717 1341.49 385.445 1331.91 375.614C1322.57 365.537 1310.53 360.499 1295.78 360.499C1281.03 360.499 1268.87 365.537 1259.28 375.614C1249.7 385.445 1244.91 398.717 1244.91 415.429C1244.91 432.142 1249.7 445.536 1259.28 455.613C1268.87 465.444 1281.03 470.359 1295.78 470.359ZM1563.53 313.311C1588.1 313.311 1607.89 320.684 1622.88 335.43C1638.12 350.177 1645.74 372.05 1645.74 401.051V514.598H1588.23V409.899C1588.23 394.17 1584.79 382.496 1577.91 374.877C1571.02 367.012 1561.07 363.08 1548.04 363.08C1533.54 363.08 1521.99 367.626 1513.39 376.72C1504.79 385.568 1500.49 398.84 1500.49 416.535V514.598H1442.98V241.054H1500.49V336.905C1508.11 329.286 1517.32 323.51 1528.14 319.578C1538.95 315.4 1550.75 313.311 1563.53 313.311ZM1818.42 313.311C1843 313.311 1862.78 320.684 1877.77 335.43C1893.01 350.177 1900.63 372.05 1900.63 401.051V514.598H1843.12V409.899C1843.12 394.17 1839.68 382.496 1832.8 374.877C1825.92 367.012 1815.96 363.08 1802.94 363.08C1788.44 363.08 1776.88 367.626 1768.28 376.72C1759.68 385.568 1755.38 398.84 1755.38 416.535V514.598H1697.87V316.26H1752.8V339.485C1760.42 331.129 1769.88 324.739 1781.19 320.315C1792.49 315.646 1804.9 313.311 1818.42 313.311ZM1952.76 316.26H2010.27V514.598H1952.76V316.26ZM1981.52 288.611C1970.95 288.611 1962.35 285.538 1955.71 279.394C1949.08 273.25 1945.76 265.631 1945.76 256.537C1945.76 247.444 1949.08 239.825 1955.71 233.68C1962.35 227.536 1970.95 224.464 1981.52 224.464C1992.09 224.464 2000.69 227.413 2007.32 233.312C2013.96 239.21 2017.28 246.583 2017.28 255.431C2017.28 265.016 2013.96 273.004 2007.32 279.394C2000.69 285.538 1992.09 288.611 1981.52 288.611ZM2143.65 313.311C2174.37 313.311 2197.96 320.684 2214.43 335.43C2230.9 349.931 2239.13 371.927 2239.13 401.42V514.598H2185.31V489.898C2174.49 508.331 2154.34 517.548 2124.85 517.548C2109.61 517.548 2096.34 514.967 2085.03 509.806C2073.97 504.645 2065.49 497.517 2059.59 488.424C2053.69 479.33 2050.74 469.008 2050.74 457.456C2050.74 439.023 2057.63 424.523 2071.39 413.955C2085.4 403.386 2106.9 398.102 2135.9 398.102H2181.62C2181.62 385.568 2177.81 375.983 2170.19 369.347C2162.57 362.465 2151.14 359.024 2135.9 359.024C2125.34 359.024 2114.89 360.745 2104.57 364.186C2094.49 367.381 2085.89 371.805 2078.76 377.457L2058.12 337.274C2068.93 329.655 2081.83 323.756 2096.83 319.578C2112.06 315.4 2127.67 313.311 2143.65 313.311ZM2139.22 478.838C2149.05 478.838 2157.78 476.627 2165.4 472.203C2173.02 467.533 2178.42 460.774 2181.62 451.926V431.65H2142.17C2118.58 431.65 2106.78 439.392 2106.78 454.876C2106.78 462.249 2109.61 468.147 2115.26 472.571C2121.16 476.749 2129.15 478.838 2139.22 478.838ZM2411.73 313.311C2436.31 313.311 2456.09 320.684 2471.08 335.43C2486.32 350.177 2493.94 372.05 2493.94 401.051V514.598H2436.43V409.899C2436.43 394.17 2432.99 382.496 2426.11 374.877C2419.23 367.012 2409.27 363.08 2396.25 363.08C2381.75 363.08 2370.2 367.626 2361.59 376.72C2352.99 385.568 2348.69 398.84 2348.69 416.535V514.598H2291.18V316.26H2346.11V339.485C2353.73 331.129 2363.19 324.739 2374.5 320.315C2385.8 315.646 2398.21 313.311 2411.73 313.311ZM2891.21 256.537V514.598H2842.18L2713.52 357.918V514.598H2654.53V256.537H2703.93L2832.23 413.217V256.537H2891.21ZM3142.5 416.166C3142.5 416.904 3142.13 422.065 3141.39 431.65H2991.35C2994.05 443.939 3000.44 453.647 3010.52 460.774C3020.59 467.902 3033.13 471.465 3048.12 471.465C3058.44 471.465 3067.54 469.991 3075.4 467.041C3083.51 463.846 3091.01 458.931 3097.89 452.295L3128.49 485.474C3109.81 506.857 3082.53 517.548 3046.64 517.548C3024.28 517.548 3004.49 513.247 2987.29 504.645C2970.09 495.797 2956.81 483.631 2947.48 468.147C2938.14 452.664 2933.47 435.091 2933.47 415.429C2933.47 396.013 2938.01 378.563 2947.11 363.08C2956.45 347.35 2969.1 335.184 2985.08 326.582C3001.3 317.735 3019.36 313.311 3039.27 313.311C3058.69 313.311 3076.26 317.489 3091.99 325.845C3107.72 334.201 3120.01 346.244 3128.86 361.974C3137.95 377.457 3142.5 395.522 3142.5 416.166ZM3039.64 356.812C3026.61 356.812 3015.68 360.499 3006.83 367.872C2997.98 375.245 2992.57 385.322 2990.61 398.102H3088.3C3086.34 385.568 3080.93 375.614 3072.08 368.241C3063.23 360.622 3052.42 356.812 3039.64 356.812ZM3308.71 505.013C3303.06 509.191 3296.05 512.386 3287.7 514.598C3279.59 516.565 3270.98 517.548 3261.89 517.548C3238.3 517.548 3219.99 511.526 3206.96 499.483C3194.18 487.441 3187.79 469.745 3187.79 446.397V364.923H3157.19V320.684H3187.79V272.39H3245.3V320.684H3294.7V364.923H3245.3V445.659C3245.3 454.015 3247.39 460.528 3251.57 465.198C3255.99 469.622 3262.14 471.834 3270 471.834C3279.09 471.834 3286.84 469.376 3293.23 464.461L3308.71 505.013ZM3655.91 316.26L3584.03 514.598H3528.73L3484.12 391.466L3438.04 514.598H3382.74L3311.22 316.26H3365.41L3412.23 450.452L3460.89 316.26H3509.56L3556.74 450.452L3605.04 316.26H3655.91ZM3771.63 517.548C3750.74 517.548 3731.93 513.247 3715.22 504.645C3698.76 495.797 3685.85 483.631 3676.51 468.147C3667.17 452.664 3662.5 435.091 3662.5 415.429C3662.5 395.767 3667.17 378.195 3676.51 362.711C3685.85 347.227 3698.76 335.184 3715.22 326.582C3731.93 317.735 3750.74 313.311 3771.63 313.311C3792.52 313.311 3811.2 317.735 3827.66 326.582C3844.13 335.184 3857.03 347.227 3866.37 362.711C3875.71 378.195 3880.38 395.767 3880.38 415.429C3880.38 435.091 3875.71 452.664 3866.37 468.147C3857.03 483.631 3844.13 495.797 3827.66 504.645C3811.2 513.247 3792.52 517.548 3771.63 517.548ZM3771.63 470.359C3786.37 470.359 3798.42 465.444 3807.76 455.613C3817.34 445.536 3822.13 432.142 3822.13 415.429C3822.13 398.717 3817.34 385.445 3807.76 375.614C3798.42 365.537 3786.37 360.499 3771.63 360.499C3756.88 360.499 3744.71 365.537 3735.13 375.614C3725.54 385.445 3720.75 398.717 3720.75 415.429C3720.75 432.142 3725.54 445.536 3735.13 455.613C3744.71 465.444 3756.88 470.359 3771.63 470.359ZM3973.75 342.435C3980.63 332.85 3989.85 325.599 4001.4 320.684C4013.2 315.768 4026.72 313.311 4041.95 313.311V366.398C4035.56 365.906 4031.26 365.66 4029.05 365.66C4012.58 365.66 3999.68 370.33 3990.34 379.669C3981 388.763 3976.33 402.526 3976.33 420.959V514.598H3918.82V316.26H3973.75V342.435ZM4161.31 436.811L4133.66 464.092V514.598H4076.15V241.054H4133.66V395.89L4217.72 316.26H4286.29L4203.71 400.314L4293.66 514.598H4223.98L4161.31 436.811ZM4344.87 517.548C4334.8 517.548 4326.32 514.107 4319.44 507.225C4312.55 500.344 4309.11 491.742 4309.11 481.419C4309.11 470.851 4312.55 462.372 4319.44 455.982C4326.32 449.346 4334.8 446.028 4344.87 446.028C4354.95 446.028 4363.43 449.346 4370.31 455.982C4377.19 462.372 4380.63 470.851 4380.63 481.419C4380.63 491.742 4377.19 500.344 4370.31 507.225C4363.43 514.107 4354.95 517.548 4344.87 517.548Z" fill="white"/>
<path d="M2774.76 618.234H2736.42L2728.16 636.618H2720.59L2752.05 567.801H2759.23L2790.69 636.618H2783.02L2774.76 618.234ZM2772.11 612.335L2755.59 575.371L2739.07 612.335H2772.11ZM2852.97 584.514C2857.82 584.514 2862.21 585.628 2866.14 587.856C2870.07 590.019 2873.15 593.1 2875.38 597.097C2877.61 601.095 2878.72 605.65 2878.72 610.762C2878.72 615.94 2877.61 620.528 2875.38 624.526C2873.15 628.524 2870.07 631.637 2866.14 633.865C2862.27 636.028 2857.88 637.109 2852.97 637.109C2848.77 637.109 2844.97 636.257 2841.56 634.553C2838.22 632.784 2835.47 630.228 2833.3 626.885V655.69H2826.32V584.907H2833.01V595.131C2835.11 591.723 2837.86 589.102 2841.27 587.267C2844.74 585.431 2848.64 584.514 2852.97 584.514ZM2852.47 630.916C2856.08 630.916 2859.36 630.097 2862.31 628.458C2865.25 626.754 2867.55 624.362 2869.19 621.281C2870.89 618.201 2871.74 614.695 2871.74 610.762C2871.74 606.83 2870.89 603.356 2869.19 600.342C2867.55 597.261 2865.25 594.869 2862.31 593.165C2859.36 591.461 2856.08 590.609 2852.47 590.609C2848.8 590.609 2845.49 591.461 2842.55 593.165C2839.66 594.869 2837.37 597.261 2835.66 600.342C2834.02 603.356 2833.21 606.83 2833.21 610.762C2833.21 614.695 2834.02 618.201 2835.66 621.281C2837.37 624.362 2839.66 626.754 2842.55 628.458C2845.49 630.097 2848.8 630.916 2852.47 630.916ZM2892.95 563.672H2899.93V636.618H2892.95V563.672ZM2937.44 584.514C2944.19 584.514 2949.37 586.218 2952.97 589.626C2956.58 592.968 2958.38 597.949 2958.38 604.569V636.618H2951.7V628.556C2950.12 631.243 2947.8 633.341 2944.72 634.848C2941.7 636.356 2938.1 637.109 2933.9 637.109C2928.14 637.109 2923.55 635.733 2920.14 632.98C2916.73 630.228 2915.03 626.59 2915.03 622.068C2915.03 617.677 2916.6 614.138 2919.75 611.451C2922.96 608.763 2928.04 607.42 2934.98 607.42H2951.4V604.274C2951.4 599.817 2950.16 596.442 2947.67 594.148C2945.18 591.789 2941.54 590.609 2936.75 590.609C2933.48 590.609 2930.33 591.166 2927.32 592.28C2924.3 593.329 2921.71 594.804 2919.55 596.704L2916.4 591.494C2919.03 589.266 2922.17 587.561 2925.84 586.382C2929.51 585.137 2933.38 584.514 2937.44 584.514ZM2934.98 631.604C2938.92 631.604 2942.29 630.719 2945.11 628.95C2947.93 627.114 2950.03 624.493 2951.4 621.085V612.63H2935.18C2926.33 612.63 2921.91 615.711 2921.91 621.871C2921.91 624.886 2923.06 627.278 2925.35 629.048C2927.64 630.752 2930.85 631.604 2934.98 631.604ZM3004.57 633.472C3003.26 634.651 3001.62 635.569 2999.66 636.224C2997.76 636.814 2995.76 637.109 2993.66 637.109C2988.81 637.109 2985.07 635.798 2982.45 633.177C2979.83 630.555 2978.52 626.852 2978.52 622.068V590.806H2969.28V584.907H2978.52V573.602H2985.5V584.907H3001.23V590.806H2985.5V621.675C2985.5 624.755 2986.25 627.114 2987.76 628.753C2989.33 630.326 2991.56 631.112 2994.45 631.112C2995.89 631.112 2997.26 630.883 2998.57 630.424C2999.95 629.965 3001.13 629.31 3002.11 628.458L3004.57 633.472ZM3034.38 569.079C3031.37 569.079 3029.07 569.899 3027.5 571.537C3025.99 573.176 3025.24 575.601 3025.24 578.812V584.907H3041.17V590.806H3025.44V636.618H3018.46V590.806H3009.22V584.907H3018.46V578.517C3018.46 573.798 3019.8 570.062 3022.49 567.31C3025.24 564.557 3029.11 563.181 3034.09 563.181C3036.05 563.181 3037.96 563.476 3039.79 564.066C3041.63 564.59 3043.17 565.376 3044.41 566.425L3042.05 571.635C3040.02 569.931 3037.46 569.079 3034.38 569.079ZM3070.86 637.109C3065.88 637.109 3061.39 635.995 3057.4 633.767C3053.4 631.473 3050.25 628.327 3047.96 624.329C3045.66 620.331 3044.52 615.809 3044.52 610.762C3044.52 605.716 3045.66 601.194 3047.96 597.196C3050.25 593.198 3053.4 590.085 3057.4 587.856C3061.39 585.628 3065.88 584.514 3070.86 584.514C3075.84 584.514 3080.33 585.628 3084.33 587.856C3088.33 590.085 3091.44 593.198 3093.67 597.196C3095.97 601.194 3097.11 605.716 3097.11 610.762C3097.11 615.809 3095.97 620.331 3093.67 624.329C3091.44 628.327 3088.33 631.473 3084.33 633.767C3080.33 635.995 3075.84 637.109 3070.86 637.109ZM3070.86 630.916C3074.53 630.916 3077.81 630.097 3080.69 628.458C3083.64 626.754 3085.94 624.362 3087.58 621.281C3089.21 618.201 3090.03 614.695 3090.03 610.762C3090.03 606.83 3089.21 603.324 3087.58 600.243C3085.94 597.163 3083.64 594.804 3080.69 593.165C3077.81 591.461 3074.53 590.609 3070.86 590.609C3067.19 590.609 3063.88 591.461 3060.93 593.165C3058.05 594.804 3055.76 597.163 3054.05 600.243C3052.41 603.324 3051.6 606.83 3051.6 610.762C3051.6 614.695 3052.41 618.201 3054.05 621.281C3055.76 624.362 3058.05 626.754 3060.93 628.458C3063.88 630.097 3067.19 630.916 3070.86 630.916ZM3118.05 595.033C3119.69 591.559 3122.11 588.938 3125.32 587.168C3128.6 585.399 3132.63 584.514 3137.41 584.514V591.297L3135.74 591.199C3130.3 591.199 3126.04 592.87 3122.96 596.213C3119.88 599.555 3118.34 604.241 3118.34 610.271V636.618H3111.36V584.907H3118.05V595.033ZM3214.54 584.514C3221.03 584.514 3226.11 586.382 3229.78 590.118C3233.52 593.853 3235.38 599.359 3235.38 606.633V636.618H3228.4V607.322C3228.4 601.947 3227.09 597.851 3224.47 595.033C3221.92 592.215 3218.28 590.806 3213.56 590.806C3208.19 590.806 3203.96 592.477 3200.88 595.819C3197.8 599.096 3196.26 603.651 3196.26 609.484V636.618H3189.28V607.322C3189.28 601.947 3187.97 597.851 3185.35 595.033C3182.79 592.215 3179.12 590.806 3174.33 590.806C3169.03 590.806 3164.8 592.477 3161.65 595.819C3158.57 599.096 3157.03 603.651 3157.03 609.484V636.618H3150.05V584.907H3156.74V594.345C3158.57 591.199 3161.13 588.774 3164.41 587.07C3167.68 585.366 3171.45 584.514 3175.71 584.514C3180.04 584.514 3183.77 585.431 3186.92 587.267C3190.13 589.102 3192.52 591.822 3194.09 595.426C3196 592.018 3198.72 589.364 3202.25 587.463C3205.86 585.497 3209.96 584.514 3214.54 584.514ZM3307.27 633.472C3305.96 634.651 3304.33 635.569 3302.36 636.224C3300.46 636.814 3298.46 637.109 3296.36 637.109C3291.51 637.109 3287.78 635.798 3285.16 633.177C3282.53 630.555 3281.22 626.852 3281.22 622.068V590.806H3271.98V584.907H3281.22V573.602H3288.2V584.907H3303.93V590.806H3288.2V621.675C3288.2 624.755 3288.96 627.114 3290.46 628.753C3292.04 630.326 3294.27 631.112 3297.15 631.112C3298.59 631.112 3299.97 630.883 3301.28 630.424C3302.65 629.965 3303.83 629.31 3304.82 628.458L3307.27 633.472ZM3339.29 637.109C3334.31 637.109 3329.82 635.995 3325.83 633.767C3321.83 631.473 3318.68 628.327 3316.39 624.329C3314.09 620.331 3312.95 615.809 3312.95 610.762C3312.95 605.716 3314.09 601.194 3316.39 597.196C3318.68 593.198 3321.83 590.085 3325.83 587.856C3329.82 585.628 3334.31 584.514 3339.29 584.514C3344.27 584.514 3348.76 585.628 3352.76 587.856C3356.76 590.085 3359.87 593.198 3362.1 597.196C3364.4 601.194 3365.54 605.716 3365.54 610.762C3365.54 615.809 3364.4 620.331 3362.1 624.329C3359.87 628.327 3356.76 631.473 3352.76 633.767C3348.76 635.995 3344.27 637.109 3339.29 637.109ZM3339.29 630.916C3342.96 630.916 3346.24 630.097 3349.12 628.458C3352.07 626.754 3354.37 624.362 3356.01 621.281C3357.64 618.201 3358.46 614.695 3358.46 610.762C3358.46 606.83 3357.64 603.324 3356.01 600.243C3354.37 597.163 3352.07 594.804 3349.12 593.165C3346.24 591.461 3342.96 590.609 3339.29 590.609C3335.62 590.609 3332.31 591.461 3329.36 593.165C3326.48 594.804 3324.19 597.163 3322.48 600.243C3320.84 603.324 3320.02 606.83 3320.02 610.762C3320.02 614.695 3320.84 618.201 3322.48 621.281C3324.19 624.362 3326.48 626.754 3329.36 628.458C3332.31 630.097 3335.62 630.916 3339.29 630.916ZM3419.38 637.109C3415.19 637.109 3411.16 636.519 3407.29 635.34C3403.49 634.094 3400.51 632.554 3398.34 630.719L3401.49 625.214C3403.65 626.918 3406.37 628.327 3409.65 629.441C3412.93 630.49 3416.34 631.014 3419.87 631.014C3424.59 631.014 3428.07 630.293 3430.3 628.851C3432.59 627.344 3433.74 625.247 3433.74 622.559C3433.74 620.659 3433.11 619.184 3431.87 618.136C3430.62 617.021 3429.05 616.202 3427.15 615.678C3425.25 615.088 3422.73 614.531 3419.58 614.007C3415.39 613.22 3412.01 612.434 3409.45 611.647C3406.9 610.795 3404.7 609.386 3402.87 607.42C3401.1 605.454 3400.21 602.734 3400.21 599.26C3400.21 594.935 3402.02 591.396 3405.62 588.643C3409.22 585.89 3414.24 584.514 3420.66 584.514C3424 584.514 3427.35 584.973 3430.69 585.89C3434.03 586.742 3436.78 587.889 3438.95 589.331L3435.9 594.935C3431.64 591.985 3426.56 590.511 3420.66 590.511C3416.2 590.511 3412.83 591.297 3410.54 592.87C3408.31 594.443 3407.19 596.508 3407.19 599.064C3407.19 601.03 3407.82 602.603 3409.06 603.782C3410.37 604.962 3411.98 605.847 3413.88 606.437C3415.78 606.961 3418.4 607.518 3421.74 608.108C3425.87 608.895 3429.18 609.681 3431.67 610.467C3434.16 611.254 3436.29 612.598 3438.06 614.498C3439.83 616.399 3440.72 619.02 3440.72 622.363C3440.72 626.885 3438.82 630.49 3435.01 633.177C3431.28 635.798 3426.07 637.109 3419.38 637.109ZM3479.97 584.514C3486.46 584.514 3491.6 586.415 3495.4 590.216C3499.27 593.952 3501.2 599.424 3501.2 606.633V636.618H3494.22V607.322C3494.22 601.947 3492.88 597.851 3490.19 595.033C3487.5 592.215 3483.67 590.806 3478.69 590.806C3473.12 590.806 3468.69 592.477 3465.42 595.819C3462.21 599.096 3460.6 603.651 3460.6 609.484V636.618H3453.62V563.672H3460.6V593.952C3462.5 590.937 3465.12 588.61 3468.46 586.972C3471.81 585.333 3475.64 584.514 3479.97 584.514ZM3538.24 584.514C3544.99 584.514 3550.17 586.218 3553.77 589.626C3557.38 592.968 3559.18 597.949 3559.18 604.569V636.618H3552.5V628.556C3550.92 631.243 3548.6 633.341 3545.52 634.848C3542.5 636.356 3538.9 637.109 3534.7 637.109C3528.93 637.109 3524.35 635.733 3520.94 632.98C3517.53 630.228 3515.83 626.59 3515.83 622.068C3515.83 617.677 3517.4 614.138 3520.54 611.451C3523.76 608.763 3528.84 607.42 3535.78 607.42H3552.2V604.274C3552.2 599.817 3550.95 596.442 3548.46 594.148C3545.97 591.789 3542.34 590.609 3537.55 590.609C3534.28 590.609 3531.13 591.166 3528.11 592.28C3525.1 593.329 3522.51 594.804 3520.35 596.704L3517.2 591.494C3519.82 589.266 3522.97 587.561 3526.64 586.382C3530.31 585.137 3534.18 584.514 3538.24 584.514ZM3535.78 631.604C3539.71 631.604 3543.09 630.719 3545.91 628.95C3548.73 627.114 3550.82 624.493 3552.2 621.085V612.63H3535.98C3527.13 612.63 3522.71 615.711 3522.71 621.871C3522.71 624.886 3523.85 627.278 3526.15 629.048C3528.44 630.752 3531.65 631.604 3535.78 631.604ZM3584.82 595.033C3586.46 591.559 3588.89 588.938 3592.1 587.168C3595.38 585.399 3599.41 584.514 3604.19 584.514V591.297L3602.52 591.199C3597.08 591.199 3592.82 592.87 3589.74 596.213C3586.66 599.555 3585.12 604.241 3585.12 610.271V636.618H3578.14V584.907H3584.82V595.033ZM3661.37 612.925H3618.12C3618.51 618.299 3620.58 622.658 3624.31 626C3628.05 629.277 3632.77 630.916 3638.47 630.916C3641.68 630.916 3644.63 630.359 3647.32 629.245C3650 628.065 3652.33 626.361 3654.3 624.132L3658.23 628.655C3655.93 631.407 3653.05 633.505 3649.58 634.946C3646.17 636.388 3642.4 637.109 3638.27 637.109C3632.96 637.109 3628.24 635.995 3624.11 633.767C3620.05 631.473 3616.87 628.327 3614.58 624.329C3612.28 620.331 3611.14 615.809 3611.14 610.762C3611.14 605.716 3612.22 601.194 3614.38 597.196C3616.61 593.198 3619.63 590.085 3623.43 587.856C3627.29 585.628 3631.62 584.514 3636.4 584.514C3641.19 584.514 3645.48 585.628 3649.28 587.856C3653.08 590.085 3656.07 593.198 3658.23 597.196C3660.39 601.128 3661.47 605.65 3661.47 610.762L3661.37 612.925ZM3636.4 590.511C3631.42 590.511 3627.23 592.116 3623.82 595.328C3620.48 598.474 3618.58 602.603 3618.12 607.715H3654.79C3654.33 602.603 3652.39 598.474 3648.99 595.328C3645.64 592.116 3641.45 590.511 3636.4 590.511ZM3744.86 584.907L3719.01 642.811C3716.91 647.661 3714.48 651.102 3711.73 653.134C3708.98 655.165 3705.67 656.181 3701.8 656.181C3699.31 656.181 3696.98 655.788 3694.82 655.001C3692.66 654.215 3690.79 653.035 3689.22 651.462L3692.46 646.252C3695.08 648.874 3698.23 650.184 3701.9 650.184C3704.26 650.184 3706.26 649.529 3707.9 648.218C3709.6 646.907 3711.17 644.679 3712.62 641.533L3714.88 636.519L3691.77 584.907H3699.05L3718.51 628.851L3737.98 584.907H3744.86ZM3774.39 637.109C3769.41 637.109 3764.92 635.995 3760.92 633.767C3756.92 631.473 3753.78 628.327 3751.48 624.329C3749.19 620.331 3748.04 615.809 3748.04 610.762C3748.04 605.716 3749.19 601.194 3751.48 597.196C3753.78 593.198 3756.92 590.085 3760.92 587.856C3764.92 585.628 3769.41 584.514 3774.39 584.514C3779.37 584.514 3783.86 585.628 3787.86 587.856C3791.85 590.085 3794.97 593.198 3797.2 597.196C3799.49 601.194 3800.64 605.716 3800.64 610.762C3800.64 615.809 3799.49 620.331 3797.2 624.329C3794.97 628.327 3791.85 631.473 3787.86 633.767C3783.86 635.995 3779.37 637.109 3774.39 637.109ZM3774.39 630.916C3778.06 630.916 3781.33 630.097 3784.22 628.458C3787.17 626.754 3789.46 624.362 3791.1 621.281C3792.74 618.201 3793.56 614.695 3793.56 610.762C3793.56 606.83 3792.74 603.324 3791.1 600.243C3789.46 597.163 3787.17 594.804 3784.22 593.165C3781.33 591.461 3778.06 590.609 3774.39 590.609C3770.72 590.609 3767.41 591.461 3764.46 593.165C3761.57 594.804 3759.28 597.163 3757.58 600.243C3755.94 603.324 3755.12 606.83 3755.12 610.762C3755.12 614.695 3755.94 618.201 3757.58 621.281C3759.28 624.362 3761.57 626.754 3764.46 628.458C3767.41 630.097 3770.72 630.916 3774.39 630.916ZM3861.48 584.907V636.618H3854.8V627.18C3852.96 630.326 3850.44 632.784 3847.23 634.553C3844.02 636.257 3840.35 637.109 3836.22 637.109C3829.47 637.109 3824.13 635.241 3820.2 631.506C3816.33 627.704 3814.39 622.166 3814.39 614.891V584.907H3821.37V614.203C3821.37 619.643 3822.72 623.772 3825.41 626.59C3828.09 629.408 3831.93 630.817 3836.91 630.817C3842.35 630.817 3846.64 629.179 3849.79 625.902C3852.93 622.559 3854.5 617.939 3854.5 612.04V584.907H3861.48ZM3887.72 595.033C3889.36 591.559 3891.78 588.938 3894.99 587.168C3898.27 585.399 3902.3 584.514 3907.09 584.514V591.297L3905.41 591.199C3899.97 591.199 3895.71 592.87 3892.63 596.213C3889.55 599.555 3888.01 604.241 3888.01 610.271V636.618H3881.03V584.907H3887.72V595.033ZM3973.45 633.472C3972.14 634.651 3970.5 635.569 3968.54 636.224C3966.64 636.814 3964.64 637.109 3962.54 637.109C3957.69 637.109 3953.95 635.798 3951.33 633.177C3948.71 630.555 3947.4 626.852 3947.4 622.068V590.806H3938.16V584.907H3947.4V573.602H3954.38V584.907H3970.11V590.806H3954.38V621.675C3954.38 624.755 3955.13 627.114 3956.64 628.753C3958.21 630.326 3960.44 631.112 3963.33 631.112C3964.77 631.112 3966.15 630.883 3967.46 630.424C3968.83 629.965 3970.01 629.31 3970.99 628.458L3973.45 633.472ZM4012.51 584.514C4018.99 584.514 4024.14 586.415 4027.94 590.216C4031.81 593.952 4033.74 599.424 4033.74 606.633V636.618H4026.76V607.322C4026.76 601.947 4025.42 597.851 4022.73 595.033C4020.04 592.215 4016.21 590.806 4011.23 590.806C4005.66 590.806 4001.23 592.477 3997.96 595.819C3994.74 599.096 3993.14 603.651 3993.14 609.484V636.618H3986.16V563.672H3993.14V593.952C3995.04 590.937 3997.66 588.61 4001 586.972C4004.35 585.333 4008.18 584.514 4012.51 584.514ZM4074.02 637.109C4069.04 637.109 4064.55 635.995 4060.55 633.767C4056.55 631.473 4053.41 628.327 4051.11 624.329C4048.82 620.331 4047.67 615.809 4047.67 610.762C4047.67 605.716 4048.82 601.194 4051.11 597.196C4053.41 593.198 4056.55 590.085 4060.55 587.856C4064.55 585.628 4069.04 584.514 4074.02 584.514C4079 584.514 4083.49 585.628 4087.49 587.856C4091.49 590.085 4094.6 593.198 4096.83 597.196C4099.12 601.194 4100.27 605.716 4100.27 610.762C4100.27 615.809 4099.12 620.331 4096.83 624.329C4094.6 628.327 4091.49 631.473 4087.49 633.767C4083.49 635.995 4079 637.109 4074.02 637.109ZM4074.02 630.916C4077.69 630.916 4080.97 630.097 4083.85 628.458C4086.8 626.754 4089.09 624.362 4090.73 621.281C4092.37 618.201 4093.19 614.695 4093.19 610.762C4093.19 606.83 4092.37 603.324 4090.73 600.243C4089.09 597.163 4086.8 594.804 4083.85 593.165C4080.97 591.461 4077.69 590.609 4074.02 590.609C4070.35 590.609 4067.04 591.461 4064.09 593.165C4061.21 594.804 4058.91 597.163 4057.21 600.243C4055.57 603.324 4054.75 606.83 4054.75 610.762C4054.75 614.695 4055.57 618.201 4057.21 621.281C4058.91 624.362 4061.21 626.754 4064.09 628.458C4067.04 630.097 4070.35 630.916 4074.02 630.916ZM4161.12 584.907V636.618H4154.43V627.18C4152.6 630.326 4150.07 632.784 4146.86 634.553C4143.65 636.257 4139.98 637.109 4135.85 637.109C4129.1 637.109 4123.76 635.241 4119.83 631.506C4115.96 627.704 4114.03 622.166 4114.03 614.891V584.907H4121.01V614.203C4121.01 619.643 4122.35 623.772 4125.04 626.59C4127.72 629.408 4131.56 630.817 4136.54 630.817C4141.98 630.817 4146.27 629.179 4149.42 625.902C4152.56 622.559 4154.14 617.939 4154.14 612.04V584.907H4161.12ZM4228.54 584.907V630.326C4228.54 639.108 4226.38 645.597 4222.05 649.791C4217.79 654.051 4211.34 656.181 4202.69 656.181C4197.9 656.181 4193.35 655.46 4189.02 654.018C4184.76 652.642 4181.29 650.709 4178.6 648.218L4182.14 642.909C4184.63 645.138 4187.64 646.875 4191.18 648.12C4194.79 649.365 4198.56 649.988 4202.49 649.988C4209.04 649.988 4213.86 648.448 4216.94 645.367C4220.02 642.352 4221.56 637.634 4221.56 631.211V624.624C4219.4 627.901 4216.55 630.391 4213.01 632.095C4209.54 633.799 4205.67 634.651 4201.41 634.651C4196.56 634.651 4192.13 633.603 4188.14 631.506C4184.2 629.343 4181.09 626.361 4178.8 622.559C4176.57 618.693 4175.45 614.334 4175.45 609.484C4175.45 604.634 4176.57 600.309 4178.8 596.508C4181.09 592.706 4184.2 589.757 4188.14 587.66C4192.07 585.563 4196.49 584.514 4201.41 584.514C4205.8 584.514 4209.76 585.399 4213.3 587.168C4216.84 588.938 4219.69 591.494 4221.86 594.836V584.907H4228.54ZM4202.1 628.458C4205.83 628.458 4209.21 627.672 4212.22 626.099C4215.24 624.46 4217.56 622.199 4219.2 619.315C4220.91 616.432 4221.76 613.155 4221.76 609.484C4221.76 605.814 4220.91 602.57 4219.2 599.752C4217.56 596.868 4215.24 594.64 4212.22 593.067C4209.27 591.428 4205.9 590.609 4202.1 590.609C4198.36 590.609 4194.99 591.396 4191.97 592.968C4189.02 594.541 4186.69 596.77 4184.99 599.653C4183.35 602.537 4182.53 605.814 4182.53 609.484C4182.53 613.155 4183.35 616.432 4184.99 619.315C4186.69 622.199 4189.02 624.46 4191.97 626.099C4194.99 627.672 4198.36 628.458 4202.1 628.458ZM4274.41 584.514C4280.9 584.514 4286.04 586.415 4289.84 590.216C4293.71 593.952 4295.64 599.424 4295.64 606.633V636.618H4288.66V607.322C4288.66 601.947 4287.32 597.851 4284.63 595.033C4281.94 592.215 4278.11 590.806 4273.13 590.806C4267.56 590.806 4263.13 592.477 4259.86 595.819C4256.65 599.096 4255.04 603.651 4255.04 609.484V636.618H4248.06V563.672H4255.04V593.952C4256.94 590.937 4259.56 588.61 4262.91 586.972C4266.25 585.333 4270.08 584.514 4274.41 584.514ZM4341.82 633.472C4340.51 634.651 4338.87 635.569 4336.91 636.224C4335.01 636.814 4333.01 637.109 4330.91 637.109C4326.06 637.109 4322.33 635.798 4319.7 633.177C4317.08 630.555 4315.77 626.852 4315.77 622.068V590.806H4306.53V584.907H4315.77V573.602H4322.75V584.907H4338.48V590.806H4322.75V621.675C4322.75 624.755 4323.51 627.114 4325.01 628.753C4326.59 630.326 4328.81 631.112 4331.7 631.112C4333.14 631.112 4334.52 630.883 4335.83 630.424C4337.2 629.965 4338.38 629.31 4339.37 628.458L4341.82 633.472ZM4368.39 637.109C4364.2 637.109 4360.17 636.519 4356.3 635.34C4352.5 634.094 4349.52 632.554 4347.35 630.719L4350.5 625.214C4352.66 626.918 4355.38 628.327 4358.66 629.441C4361.94 630.49 4365.34 631.014 4368.88 631.014C4373.6 631.014 4377.08 630.293 4379.3 628.851C4381.6 627.344 4382.74 625.247 4382.74 622.559C4382.74 620.659 4382.12 619.184 4380.88 618.136C4379.63 617.021 4378.06 616.202 4376.16 615.678C4374.26 615.088 4371.73 614.531 4368.59 614.007C4364.39 613.22 4361.02 612.434 4358.46 611.647C4355.91 610.795 4353.71 609.386 4351.88 607.42C4350.11 605.454 4349.22 602.734 4349.22 599.26C4349.22 594.935 4351.02 591.396 4354.63 588.643C4358.23 585.89 4363.25 584.514 4369.67 584.514C4373.01 584.514 4376.35 584.973 4379.7 585.89C4383.04 586.742 4385.79 587.889 4387.95 589.331L4384.91 594.935C4380.65 591.985 4375.57 590.511 4369.67 590.511C4365.21 590.511 4361.84 591.297 4359.54 592.87C4357.32 594.443 4356.2 596.508 4356.2 599.064C4356.2 601.03 4356.82 602.603 4358.07 603.782C4359.38 604.962 4360.99 605.847 4362.89 606.437C4364.79 606.961 4367.41 607.518 4370.75 608.108C4374.88 608.895 4378.19 609.681 4380.68 610.467C4383.17 611.254 4385.3 612.598 4387.07 614.498C4388.84 616.399 4389.72 619.02 4389.72 622.363C4389.72 626.885 4387.82 630.49 4384.02 633.177C4380.29 635.798 4375.08 637.109 4368.39 637.109Z" fill="#E5E5E5"/>
<line x1="2685.06" y1="609.205" x2="975.408" y2="609.205" stroke="#5B7EDE" stroke-width="15.3608"/>
<defs>
<linearGradient id="paint0_linear" x1="818.73" y1="732.86" x2="164.36" y2="93.0831" gradientUnits="userSpaceOnUse">
<stop stop-color="#B55EE0"/>
<stop offset="1" stop-color="#5B7EDE"/>
</linearGradient>
</defs>
</svg>
